<?xml version="1.0" standalone="no"?>
<!DOCTYPE svg PUBLIC "-//W3C//DTD SVG 20010904//EN"
 "http://www.w3.org/TR/2001/REC-SVG-20010904/DTD/svg10.dtd">
<svg version="1.0" xmlns="http://www.w3.org/2000/svg"
 width="512.000000pt" height="512.000000pt" viewBox="0 0 512.000000 512.000000"
 preserveAspectRatio="xMidYMid meet">

<g transform="translate(0.000000,512.000000) scale(0.100000,-0.100000)"
fill="#000000" stroke="none">
<path d="M502 5105 c-189 -41 -361 -183 -444 -364 -61 -133 -59 -58 -56 -1734
l3 -1532 27 -73 c38 -105 83 -176 158 -252 76 -75 148 -120 252 -158 l73 -27
543 -3 542 -3 0 -415 c0 -332 3 -421 14 -448 30 -71 129 -114 198 -85 18 7
312 223 653 479 l620 465 760 5 760 5 72 27 c230 83 382 255 428 484 14 71 15
241 13 1604 l-3 1525 -27 73 c-73 201 -215 341 -418 414 l-65 23 -2020 2
c-1679 1 -2031 -1 -2083 -12z"/>
</g>
</svg>
