<svg version="1.1" id="Layer_1" xmlns="http://www.w3.org/2000/svg" xmlns:xlink="http://www.w3.org/1999/xlink" x="0px" y="0px"
	 width="100%" viewBox="0 0 352 192" enable-background="new 0 0 352 192" xml:space="preserve">
<path fill="#000000" opacity="1.000000" stroke="none" 
	d="
M120.215652,138.342621 
	C116.306877,141.588211 111.663727,141.918350 107.433899,143.340332 
	C105.147591,144.108948 102.608810,144.602890 101.588272,147.341431 
	C103.938362,150.008728 106.801910,148.393173 109.262459,148.895035 
	C111.719727,149.396240 116.140076,147.394913 115.895599,151.704666 
	C115.650856,156.019180 111.644127,153.923218 109.103653,153.608521 
	C103.467270,152.910309 100.943893,154.915894 101.474419,159.757080 
	C101.798691,162.716217 103.220345,164.310257 106.302933,164.278519 
	C109.124001,164.249466 111.946259,164.329239 114.767174,164.294510 
	C116.301430,164.275620 118.006226,164.065491 118.251183,166.121857 
	C118.511581,168.307831 116.853531,169.092361 115.095451,169.148697 
	C110.604103,169.292633 106.105736,169.263931 101.610779,169.228043 
	C99.501076,169.211197 98.155251,168.052536 97.804825,165.973862 
	C97.445976,163.845291 97.143059,161.695999 97.007675,159.543701 
	C96.798683,156.220993 97.503059,152.643494 96.511055,149.600830 
	C91.703400,134.854843 98.663147,122.299095 104.004021,109.727165 
	C112.266266,90.278564 125.523659,73.888176 138.377014,57.336277 
	C140.724548,54.313271 143.185898,51.333305 146.580307,49.390892 
	C148.404800,48.346859 150.266098,46.914978 153.204407,48.965317 
	C144.475525,63.072685 132.217728,74.933762 125.465744,91.031487 
	C129.990662,90.866577 133.430634,89.100067 136.364944,86.810249 
	C147.254120,78.312790 158.024612,69.658195 168.682861,60.872356 
	C173.185257,57.160919 175.060318,52.055920 174.810272,46.201679 
	C174.514709,39.282108 170.022522,35.636272 163.133438,36.695812 
	C146.518173,39.251240 133.290314,48.548847 120.534134,58.518837 
	C114.389511,63.321362 108.680237,68.772293 103.290558,74.422516 
	C98.327393,79.625618 94.056366,85.488937 89.627922,90.881828 
	C91.074234,93.848465 94.116920,91.945709 95.512566,93.827179 
	C93.729172,98.187012 87.435326,101.742592 83.260040,100.687660 
	C79.517723,99.742119 79.296265,97.146942 80.326439,94.065681 
	C82.587654,87.302406 86.327461,81.186356 91.339066,76.409584 
	C105.058632,63.332916 119.291344,50.783653 135.519211,40.778458 
	C143.388458,35.926723 151.828491,32.512611 161.015472,31.076670 
	C168.250076,29.945889 174.733185,30.998772 179.066910,37.631229 
	C183.378448,44.229725 182.792160,50.852386 178.583481,57.281265 
	C171.916397,67.465439 162.504578,74.962280 153.445053,82.796944 
	C152.336151,83.755920 151.149689,84.625175 150.020676,85.518982 
	C150.970688,87.750877 152.842575,87.473869 154.369217,87.835876 
	C160.249863,89.230347 162.971359,94.112061 160.921997,99.917686 
	C158.041672,108.077271 151.898438,113.737732 145.720703,119.330681 
	C137.917511,126.395248 129.009521,131.988388 120.215652,138.342621 
M110.597183,133.999985 
	C121.472359,129.793655 130.638367,122.981232 139.108032,115.154037 
	C143.989502,110.642860 148.887146,106.098778 152.284195,100.280144 
	C154.816910,95.941963 153.562744,93.285271 148.659470,93.504280 
	C141.547119,93.821938 134.290512,94.277870 128.568344,99.489281 
	C126.575058,101.304642 124.305222,101.953796 121.665863,101.467712 
	C119.273056,101.027031 117.311584,101.642700 116.405937,104.088509 
	C113.122009,112.957130 108.127586,121.098358 105.343994,130.178528 
	C104.873512,131.713242 103.684982,133.141876 104.773743,134.921249 
	C106.630196,136.092056 108.239006,134.857941 110.597183,133.999985 
z"/>
<path fill="#000000" opacity="1.000000" stroke="none" 
	d="
M186.013474,105.143845 
	C183.020020,107.095131 179.442108,107.559135 177.641327,110.515846 
	C178.307281,112.428780 179.587219,112.487289 180.986893,112.295982 
	C190.328644,111.019196 199.065231,107.941971 207.378296,103.541679 
	C212.021011,101.084160 215.075378,97.309502 217.003922,92.517578 
	C217.376511,91.591789 217.604630,90.569992 218.148453,89.759628 
	C219.021286,88.459045 220.280609,87.393341 221.917984,88.283188 
	C223.489929,89.137489 222.899139,90.585571 222.263718,91.781342 
	C219.736526,96.537064 218.502396,101.735771 217.047348,106.855507 
	C216.472046,108.879799 215.706665,110.961212 216.926208,113.000237 
	C218.369308,113.342957 219.364197,112.695763 220.105728,111.788513 
	C225.413025,105.295197 232.484253,100.659698 238.175934,94.568939 
	C239.901825,92.722023 242.046036,90.822563 244.696259,92.305733 
	C247.345871,93.788574 246.047577,96.371460 245.532318,98.603859 
	C244.875305,101.450455 244.261688,104.307083 243.614639,107.225891 
	C246.421036,107.799080 247.800629,106.182716 249.302887,104.974678 
	C253.065308,101.949173 256.772675,98.855247 260.502350,95.789009 
	C262.032104,94.531372 263.625214,92.637199 265.713409,94.082390 
	C267.794128,95.522377 266.491577,97.738121 266.007965,99.605698 
	C264.968201,103.620827 264.480804,107.673729 264.603790,112.577461 
	C274.480682,109.169777 281.103302,100.891571 290.364502,97.693588 
	C291.922913,99.929962 290.684814,101.083405 289.629303,102.040169 
	C283.211121,107.857948 276.766815,113.658775 268.619446,117.065987 
	C261.224304,120.158600 257.518372,117.592087 257.643097,109.466652 
	C257.657928,108.498940 257.645081,107.530800 257.645081,105.726471 
	C253.868011,108.773956 250.738312,111.446571 247.449203,113.906013 
	C244.839615,115.857338 242.176102,118.674377 238.534698,116.511559 
	C234.856934,114.327133 234.575882,110.721802 236.220917,105.920341 
	C230.670639,110.219627 227.727173,115.600258 222.875076,119.000175 
	C220.962204,120.340553 219.190903,121.829834 216.797714,122.292831 
	C213.718246,122.888596 211.207718,122.043961 209.275955,119.566528 
	C207.461975,117.240173 207.778046,115.005722 209.452057,112.710899 
	C210.104980,111.815842 210.840820,110.786736 210.209854,108.891113 
	C203.770126,111.336792 197.359421,113.835770 190.898193,116.196487 
	C187.937027,117.278412 184.931305,118.372826 181.850388,118.966454 
	C173.889191,120.500389 168.043243,114.524887 169.758469,106.620956 
	C172.182678,95.449974 178.953552,87.988777 189.713470,84.226143 
	C192.621689,83.209167 195.582382,82.890976 197.974731,85.655930 
	C200.305908,88.350166 199.113159,90.971001 197.891953,93.552605 
	C195.433929,98.748817 190.915787,101.900620 186.013474,105.143845 
z"/>
<path fill="#000000" opacity="1.000000" stroke="none" 
	d="
M239.688477,167.420349 
	C238.304565,164.905533 237.348312,162.558548 235.941208,160.523285 
	C233.868622,157.525452 230.659790,157.112869 227.457260,158.070847 
	C224.108627,159.072540 225.666870,161.738235 225.918365,163.934189 
	C226.150391,165.960388 227.284241,168.701706 223.987289,169.079849 
	C220.422897,169.488647 220.738129,166.516983 220.718994,164.231339 
	C220.659012,157.071579 220.863022,149.904861 220.613022,142.753128 
	C220.446625,137.993057 222.566589,136.016403 227.077179,136.061096 
	C229.902420,136.089096 232.757217,135.866379 235.547318,136.194077 
	C243.817017,137.165344 247.990875,144.440063 243.272125,151.215759 
	C240.175812,155.661758 241.417084,158.683472 243.097290,162.519547 
	C243.939331,164.442017 245.691635,166.096405 245.213593,168.571472 
	C243.185608,169.961319 241.492935,169.234879 239.688477,167.420349 
M226.432602,143.178909 
	C226.325974,143.997665 226.187164,144.813736 226.118256,145.635651 
	C225.810837,149.302002 226.097122,152.105896 231.154556,151.889008 
	C237.489639,151.617325 239.536758,150.410095 239.655624,145.604034 
	C239.706894,143.530609 239.104218,141.749237 236.909866,141.587952 
	C233.536499,141.339981 230.015533,140.277267 226.432602,143.178909 
z"/>
<path fill="#000000" opacity="1.000000" stroke="none" 
	d="
M297.119720,137.490631 
	C304.931396,143.389801 307.677002,152.872025 303.981049,160.183365 
	C300.468231,167.132431 293.840027,170.504089 286.214569,169.220901 
	C280.083405,168.189148 274.832306,162.149612 273.692657,154.665085 
	C271.703918,141.604538 283.508423,131.387451 297.119720,137.490631 
M278.701843,154.729889 
	C281.060333,162.250259 286.562683,166.017365 292.533997,164.093399 
	C300.450500,161.542618 300.882599,154.448669 299.290436,147.685120 
	C298.133362,142.769913 292.445862,140.148941 286.830780,141.181793 
	C281.378235,142.184769 278.268036,146.954300 278.701843,154.729889 
z"/>
<path fill="#000000" opacity="1.000000" stroke="none" 
	d="
M213.625488,158.978668 
	C208.655670,168.550873 200.182053,171.964066 191.956558,168.017380 
	C184.065170,164.230972 180.588928,153.868393 184.313156,145.232635 
	C187.769409,137.218246 196.555267,133.533661 204.633591,136.710709 
	C212.552628,139.825104 215.760391,147.488419 213.625488,158.978668 
M187.822205,149.328781 
	C186.582718,158.439178 193.734772,166.483780 201.240509,164.421616 
	C206.148361,163.073212 209.850235,157.752396 209.661972,152.317184 
	C209.473907,146.887924 206.139038,142.128418 202.000397,141.382599 
	C195.172440,140.152176 190.559982,142.535156 187.822205,149.328781 
z"/>
<path fill="#000000" opacity="1.000000" stroke="none" 
	d="
M51.133263,143.937836 
	C54.271584,152.286575 57.260063,160.274536 60.300350,168.400986 
	C56.706383,169.931213 54.839146,168.492233 54.159676,165.770386 
	C53.239288,162.083481 50.933372,161.268997 47.545666,161.283722 
	C42.557724,161.305359 37.435333,160.395386 35.864723,167.324844 
	C35.473473,169.051025 33.271393,169.783417 30.832705,168.081009 
	C34.406994,158.289795 37.544430,148.201416 42.575798,138.901001 
	C44.498230,135.347427 47.865200,136.006317 49.545952,139.868820 
	C50.074478,141.083420 50.506973,142.339813 51.133263,143.937836 
M44.615547,145.637177 
	C43.677795,148.896454 41.378876,151.680054 41.015614,155.452271 
	C44.026939,156.036682 47.818005,157.373260 48.785225,154.099274 
	C49.593330,151.363846 47.847012,147.789444 46.917931,144.680420 
	C46.664150,143.831177 45.523861,144.417053 44.615547,145.637177 
z"/>
<path fill="#000000" opacity="1.000000" stroke="none" 
	d="
M131.572327,147.692139 
	C135.091354,149.211578 138.250336,150.772629 141.579056,151.763535 
	C146.023239,153.086517 147.807556,156.322433 147.706360,160.375977 
	C147.603989,164.476059 145.372269,167.838226 141.161041,168.872421 
	C135.360031,170.297058 129.914734,169.299561 125.294838,165.186630 
	C124.232353,164.240738 123.320915,163.112900 124.266113,161.748154 
	C125.194420,160.407791 126.589569,160.822891 127.871239,161.415787 
	C131.448730,163.070755 134.835617,165.493164 139.163208,163.880936 
	C140.790237,163.274780 142.359726,162.707123 142.599625,160.729797 
	C142.811050,158.987411 141.556168,158.047119 140.369095,157.096024 
	C138.092087,155.271683 135.337692,154.626450 132.632339,153.775818 
	C127.164345,152.056610 124.315033,148.121490 125.027824,143.582626 
	C125.790596,138.725525 129.240082,136.160599 135.277130,136.169601 
	C137.431351,136.172821 139.598465,136.449158 141.736038,136.762268 
	C145.541321,137.319656 146.271179,138.651459 145.295151,143.276382 
	C142.331192,142.397064 139.425140,141.272781 136.414276,140.731369 
	C134.311996,140.353333 131.964066,140.749802 130.482468,142.605820 
	C129.079498,144.363327 129.841873,146.045547 131.572327,147.692139 
z"/>
<path fill="#000000" opacity="1.000000" stroke="none" 
	d="
M164.735626,149.278229 
	C166.972702,150.090927 168.831360,150.826218 170.728561,151.442963 
	C176.749756,153.400253 178.199646,155.639313 177.264771,161.668060 
	C176.555206,166.243729 172.845596,169.231689 167.707428,169.366180 
	C160.540695,169.553757 155.939270,167.041992 153.578506,161.586182 
	C155.650085,160.210663 157.341980,161.771576 159.121735,162.336075 
	C161.333878,163.037750 163.455444,164.172638 165.711700,164.551819 
	C168.827728,165.075485 171.462997,163.773453 172.349960,160.602737 
	C173.283005,157.267288 170.447876,156.334244 168.138519,155.476044 
	C165.652603,154.552200 162.980606,154.127899 160.497452,153.198151 
	C157.270889,151.990082 155.061386,149.594055 155.362228,146.036026 
	C155.674622,142.341446 156.741379,138.564209 160.705307,137.110199 
	C164.684845,135.650452 168.916672,135.657196 173.006775,136.852890 
	C175.952438,137.713989 177.076141,139.912811 176.783417,142.886841 
	C174.468552,144.245499 173.311356,142.009613 171.661484,141.650406 
	C169.566528,141.194305 167.561401,140.030426 165.338074,140.558167 
	C163.014435,141.109726 160.726151,141.922546 160.447998,144.797516 
	C160.178665,147.581116 162.177994,148.495178 164.735626,149.278229 
z"/>
<path fill="#000000" opacity="1.000000" stroke="none" 
	d="
M312.619965,143.832108 
	C312.957458,138.427704 315.980042,136.454742 320.602234,136.428085 
	C323.090973,136.413712 325.616272,136.405869 328.062378,136.792038 
	C331.797211,137.381653 332.788788,139.652237 331.600159,143.533463 
	C328.492767,142.480087 326.267670,140.448593 323.381561,140.352829 
	C320.380310,140.253235 317.457306,140.734070 316.596283,144.084763 
	C315.672089,147.681351 318.565521,148.495621 321.181641,149.336777 
	C323.236481,149.997467 325.285919,150.687744 327.296387,151.471146 
	C332.654999,153.559219 334.147217,156.248367 333.182617,161.907120 
	C332.475677,166.054504 328.987457,168.981567 324.370178,169.301926 
	C316.801849,169.827026 311.367706,166.906616 309.554810,161.165955 
	C311.617767,159.918839 313.323975,161.210434 314.985840,162.055984 
	C318.204651,163.693726 321.545074,164.367279 325.118835,163.793243 
	C326.721252,163.535858 327.967499,162.717209 328.401337,161.123917 
	C328.842926,159.502335 328.052673,158.183868 326.835358,157.182556 
	C324.583344,155.330185 321.848938,154.712021 319.066895,154.058044 
	C312.571655,152.531143 311.468231,150.726013 312.619965,143.832108 
z"/>
<path fill="#000000" opacity="1.000000" stroke="none" 
	d="
M79.080994,141.286545 
	C72.182869,142.133835 67.576523,147.558136 68.503685,153.605896 
	C69.245842,158.446823 71.291107,162.318588 76.511314,164.022675 
	C81.246971,165.568573 85.054672,162.073135 89.785927,161.921158 
	C90.197556,166.896347 86.686050,168.087585 83.528313,168.968750 
	C76.092171,171.043747 68.638977,167.375763 65.212280,160.356522 
	C62.112801,154.007538 63.328945,146.037674 68.191505,140.832428 
	C72.703796,136.002136 79.799911,134.348022 85.566406,136.966125 
	C88.321541,138.216980 90.885345,139.820084 89.592537,143.836029 
	C85.880722,143.806702 83.117416,140.705536 79.080994,141.286545 
z"/>
<path fill="#000000" opacity="1.000000" stroke="none" 
	d="
M262.827515,160.875732 
	C262.483063,163.945328 264.744476,163.964142 266.336243,164.584702 
	C267.528168,165.049393 268.487915,165.601196 268.290649,167.038300 
	C268.097321,168.446304 266.873871,168.996689 265.765228,169.044510 
	C262.119873,169.201752 258.464661,169.171783 254.814011,169.136765 
	C253.767334,169.126740 252.848724,168.571625 252.496948,167.540710 
	C252.116089,166.424606 252.741852,165.446045 253.671234,165.064713 
	C257.602539,163.451630 257.495056,160.044510 257.587799,156.694199 
	C257.610840,155.863373 257.647278,155.029358 257.602814,154.200836 
	C257.294586,148.459396 260.167267,141.672119 251.633667,138.273682 
	C257.117462,136.373550 261.968048,135.516922 267.033539,136.380905 
	C267.858429,136.521591 268.573029,137.053146 268.761414,137.970215 
	C268.998383,139.123840 268.440979,140.080811 267.412689,140.307236 
	C262.667786,141.352112 263.024841,144.985306 263.022278,148.525497 
	C263.019440,152.513901 262.923309,156.502213 262.827515,160.875732 
z"/>
<path fill="#000000" opacity="1.000000" stroke="none" 
	d="
M196.351578,130.443359 
	C199.754456,127.944038 199.754456,127.944038 203.269516,128.663498 
	C203.327423,131.563034 201.338608,132.637375 199.018936,133.116257 
	C197.429977,133.444260 195.997498,132.945755 196.351578,130.443359 
z"/>
</svg>